<mxfile host="app.diagrams.net" modified="2024-07-23T13:01:32.061Z" agent="Mozilla/5.0 (Windows NT 10.0; Win64; x64) AppleWebKit/537.36 (KHTML, like Gecko) Chrome/126.0.0.0 Safari/537.36" etag="_sZY3_sx5ly0qHbq7Qt_" version="24.6.4" type="github">
  <diagram id="C5RBs43oDa-KdzZeNtuy" name="Page-1">
    <mxGraphModel dx="893" dy="463" grid="1" gridSize="10" guides="1" tooltips="1" connect="1" arrows="1" fold="1" page="1" pageScale="1" pageWidth="3300" pageHeight="4681" math="0" shadow="0">
      <root>
        <mxCell id="WIyWlLk6GJQsqaUBKTNV-0" />
        <mxCell id="WIyWlLk6GJQsqaUBKTNV-1" parent="WIyWlLk6GJQsqaUBKTNV-0" />
        <mxCell id="Ro10OfTKUFiEWyOh9JFK-2" value="&lt;div data-lake_diagram_content_editor_data=&quot;true&quot;&gt;ClientProxy&lt;/div&gt;" style="swimlane;fontStyle=1;align=center;verticalAlign=top;childLayout=stackLayout;horizontal=1;startSize=26;horizontalStack=0;resizeParent=1;resizeParentMax=0;resizeLast=0;collapsible=1;marginBottom=0;whiteSpace=wrap;html=1;" vertex="1" parent="WIyWlLk6GJQsqaUBKTNV-1">
          <mxGeometry x="580" y="760" width="240" height="110" as="geometry">
            <mxRectangle x="230" y="720" width="100" height="30" as="alternateBounds" />
          </mxGeometry>
        </mxCell>
        <mxCell id="Ro10OfTKUFiEWyOh9JFK-3" value="&lt;div data-lake_diagram_content_editor_data=&quot;true&quot;&gt;&lt;div&gt;- host:String&lt;/div&gt;&lt;div&gt;- port:int&lt;br&gt;&lt;/div&gt;&lt;/div&gt;" style="text;strokeColor=none;fillColor=none;align=left;verticalAlign=top;spacingLeft=4;spacingRight=4;overflow=hidden;rotatable=0;points=[[0,0.5],[1,0.5]];portConstraint=eastwest;whiteSpace=wrap;html=1;" vertex="1" parent="Ro10OfTKUFiEWyOh9JFK-2">
          <mxGeometry y="26" width="240" height="34" as="geometry" />
        </mxCell>
        <mxCell id="Ro10OfTKUFiEWyOh9JFK-4" value="" style="line;strokeWidth=1;fillColor=none;align=left;verticalAlign=middle;spacingTop=-1;spacingLeft=3;spacingRight=3;rotatable=0;labelPosition=right;points=[];portConstraint=eastwest;strokeColor=inherit;" vertex="1" parent="Ro10OfTKUFiEWyOh9JFK-2">
          <mxGeometry y="60" width="240" height="8" as="geometry" />
        </mxCell>
        <mxCell id="Ro10OfTKUFiEWyOh9JFK-5" value="&lt;div data-lake_diagram_content_editor_data=&quot;true&quot;&gt;&lt;div&gt;+ invoke(Object, Method, Object[]):Object&lt;/div&gt;&lt;div&gt;+ getProxy(Class&amp;lt;T&amp;gt;):T&lt;/div&gt;&lt;/div&gt;" style="text;strokeColor=none;fillColor=none;align=left;verticalAlign=top;spacingLeft=4;spacingRight=4;overflow=hidden;rotatable=0;points=[[0,0.5],[1,0.5]];portConstraint=eastwest;whiteSpace=wrap;html=1;" vertex="1" parent="Ro10OfTKUFiEWyOh9JFK-2">
          <mxGeometry y="68" width="240" height="42" as="geometry" />
        </mxCell>
        <mxCell id="Ro10OfTKUFiEWyOh9JFK-9" value="«interface»&lt;br&gt;&lt;div&gt;&lt;div data-lake_diagram_content_editor_data=&quot;true&quot;&gt;InvocationHandler&lt;/div&gt;&lt;/div&gt;" style="html=1;whiteSpace=wrap;" vertex="1" parent="WIyWlLk6GJQsqaUBKTNV-1">
          <mxGeometry x="640" y="660" width="120" height="40" as="geometry" />
        </mxCell>
        <mxCell id="Ro10OfTKUFiEWyOh9JFK-10" value="" style="endArrow=block;dashed=1;endFill=0;endSize=12;html=1;rounded=0;entryX=0.5;entryY=1;entryDx=0;entryDy=0;exitX=0.5;exitY=0;exitDx=0;exitDy=0;" edge="1" parent="WIyWlLk6GJQsqaUBKTNV-1" source="Ro10OfTKUFiEWyOh9JFK-2" target="Ro10OfTKUFiEWyOh9JFK-9">
          <mxGeometry width="160" relative="1" as="geometry">
            <mxPoint x="570" y="730" as="sourcePoint" />
            <mxPoint x="730" y="730" as="targetPoint" />
          </mxGeometry>
        </mxCell>
      </root>
    </mxGraphModel>
  </diagram>
</mxfile>
